<svg width="100%" viewBox="0 0 680 220" role="img" xmlns="http://www.w3.org/2000/svg" style="">
  <title style="fill:rgb(0, 0, 0);stroke:none;color:rgb(0, 0, 0);stroke-width:0.869565px;stroke-linecap:butt;stroke-linejoin:miter;opacity:1;font-family:&quot;Anthropic Sans&quot;, -apple-system, BlinkMacSystemFont, &quot;Segoe UI&quot;, sans-serif;font-size:16px;font-weight:400;text-anchor:start;dominant-baseline:auto">Curl dekoracija</title>
  <desc style="fill:rgb(0, 0, 0);stroke:none;color:rgb(0, 0, 0);stroke-width:0.869565px;stroke-linecap:butt;stroke-linejoin:miter;opacity:1;font-family:&quot;Anthropic Sans&quot;, -apple-system, BlinkMacSystemFont, &quot;Segoe UI&quot;, sans-serif;font-size:16px;font-weight:400;text-anchor:start;dominant-baseline:auto">Rozе curl linije za dekoraciju</desc>

  <!-- LIJEVE CURL LINIJE -->
  <path d="M 90 110 C 90 80, 60 60, 40 80 C 20 100, 35 130, 60 125 C 80 120, 85 100, 70 92 C 58 86, 48 98, 55 108" fill="none" stroke="#d81b60" stroke-width="1.8" stroke-linecap="round" opacity="0.8" style="fill:none;stroke:rgb(216, 27, 96);color:rgb(0, 0, 0);stroke-width:1.565217px;stroke-linecap:round;stroke-linejoin:miter;opacity:0.8;font-family:&quot;Anthropic Sans&quot;, -apple-system, BlinkMacSystemFont, &quot;Segoe UI&quot;, sans-serif;font-size:16px;font-weight:400;text-anchor:start;dominant-baseline:auto"/>
  <path d="M 105 60 C 105 40, 80 28, 65 42 C 50 56, 62 75, 78 68 C 90 63, 88 50, 76 48" fill="none" stroke="#f48fb1" stroke-width="1.5" stroke-linecap="round" opacity="0.9" style="fill:none;stroke:rgb(244, 143, 177);color:rgb(0, 0, 0);stroke-width:1.304348px;stroke-linecap:round;stroke-linejoin:miter;opacity:0.9;font-family:&quot;Anthropic Sans&quot;, -apple-system, BlinkMacSystemFont, &quot;Segoe UI&quot;, sans-serif;font-size:16px;font-weight:400;text-anchor:start;dominant-baseline:auto"/>
  <path d="M 80 170 C 80 152, 60 142, 48 154 C 36 166, 48 180, 62 174 C 72 170, 70 158, 60 158" fill="none" stroke="#e91e8c" stroke-width="1.4" stroke-linecap="round" opacity="0.7" style="fill:none;stroke:rgb(233, 30, 140);color:rgb(0, 0, 0);stroke-width:1.217391px;stroke-linecap:round;stroke-linejoin:miter;opacity:0.7;font-family:&quot;Anthropic Sans&quot;, -apple-system, BlinkMacSystemFont, &quot;Segoe UI&quot;, sans-serif;font-size:16px;font-weight:400;text-anchor:start;dominant-baseline:auto"/>
  <path d="M 115 90 C 95 70, 55 75, 50 95 C 45 115, 70 128, 85 115 C 98 103, 88 85, 72 88 C 60 90, 58 105, 68 110" fill="none" stroke="#f8bbd0" stroke-width="2" stroke-linecap="round" opacity="0.6" style="fill:none;stroke:rgb(248, 187, 208);color:rgb(0, 0, 0);stroke-width:1.73913px;stroke-linecap:round;stroke-linejoin:miter;opacity:0.6;font-family:&quot;Anthropic Sans&quot;, -apple-system, BlinkMacSystemFont, &quot;Segoe UI&quot;, sans-serif;font-size:16px;font-weight:400;text-anchor:start;dominant-baseline:auto"/>
  <path d="M 100 145 C 100 130, 82 122, 72 132 C 62 142, 72 155, 84 150 C 93 146, 90 136, 82 136" fill="none" stroke="#f48fb1" stroke-width="1.2" stroke-linecap="round" opacity="0.6" style="fill:none;stroke:rgb(244, 143, 177);color:rgb(0, 0, 0);stroke-width:1.043478px;stroke-linecap:round;stroke-linejoin:miter;opacity:0.6;font-family:&quot;Anthropic Sans&quot;, -apple-system, BlinkMacSystemFont, &quot;Segoe UI&quot;, sans-serif;font-size:16px;font-weight:400;text-anchor:start;dominant-baseline:auto"/>
  <path d="M 120 30 C 100 50, 65 45, 55 65 C 45 85, 60 100, 75 95" fill="none" stroke="#f48fb1" stroke-width="1" stroke-linecap="round" opacity="0.4" style="fill:none;stroke:rgb(244, 143, 177);color:rgb(0, 0, 0);stroke-width:0.869565px;stroke-linecap:round;stroke-linejoin:miter;opacity:0.4;font-family:&quot;Anthropic Sans&quot;, -apple-system, BlinkMacSystemFont, &quot;Segoe UI&quot;, sans-serif;font-size:16px;font-weight:400;text-anchor:start;dominant-baseline:auto"/>

  <!-- DESNE CURL LINIJE -->
  <path d="M 590 110 C 590 80, 620 60, 640 80 C 660 100, 645 130, 620 125 C 600 120, 595 100, 610 92 C 622 86, 632 98, 625 108" fill="none" stroke="#d81b60" stroke-width="1.8" stroke-linecap="round" opacity="0.8" style="fill:none;stroke:rgb(216, 27, 96);color:rgb(0, 0, 0);stroke-width:1.565217px;stroke-linecap:round;stroke-linejoin:miter;opacity:0.8;font-family:&quot;Anthropic Sans&quot;, -apple-system, BlinkMacSystemFont, &quot;Segoe UI&quot;, sans-serif;font-size:16px;font-weight:400;text-anchor:start;dominant-baseline:auto"/>
  <path d="M 575 60 C 575 40, 600 28, 615 42 C 630 56, 618 75, 602 68 C 590 63, 592 50, 604 48" fill="none" stroke="#f48fb1" stroke-width="1.5" stroke-linecap="round" opacity="0.9" style="fill:none;stroke:rgb(244, 143, 177);color:rgb(0, 0, 0);stroke-width:1.304348px;stroke-linecap:round;stroke-linejoin:miter;opacity:0.9;font-family:&quot;Anthropic Sans&quot;, -apple-system, BlinkMacSystemFont, &quot;Segoe UI&quot;, sans-serif;font-size:16px;font-weight:400;text-anchor:start;dominant-baseline:auto"/>
  <path d="M 600 170 C 600 152, 620 142, 632 154 C 644 166, 632 180, 618 174 C 608 170, 610 158, 620 158" fill="none" stroke="#e91e8c" stroke-width="1.4" stroke-linecap="round" opacity="0.7" style="fill:none;stroke:rgb(233, 30, 140);color:rgb(0, 0, 0);stroke-width:1.217391px;stroke-linecap:round;stroke-linejoin:miter;opacity:0.7;font-family:&quot;Anthropic Sans&quot;, -apple-system, BlinkMacSystemFont, &quot;Segoe UI&quot;, sans-serif;font-size:16px;font-weight:400;text-anchor:start;dominant-baseline:auto"/>
  <path d="M 565 90 C 585 70, 625 75, 630 95 C 635 115, 610 128, 595 115 C 582 103, 592 85, 608 88 C 620 90, 622 105, 612 110" fill="none" stroke="#f8bbd0" stroke-width="2" stroke-linecap="round" opacity="0.6" style="fill:none;stroke:rgb(248, 187, 208);color:rgb(0, 0, 0);stroke-width:1.73913px;stroke-linecap:round;stroke-linejoin:miter;opacity:0.6;font-family:&quot;Anthropic Sans&quot;, -apple-system, BlinkMacSystemFont, &quot;Segoe UI&quot;, sans-serif;font-size:16px;font-weight:400;text-anchor:start;dominant-baseline:auto"/>
  <path d="M 580 145 C 580 130, 598 122, 608 132 C 618 142, 608 155, 596 150 C 587 146, 590 136, 598 136" fill="none" stroke="#f48fb1" stroke-width="1.2" stroke-linecap="round" opacity="0.6" style="fill:none;stroke:rgb(244, 143, 177);color:rgb(0, 0, 0);stroke-width:1.043478px;stroke-linecap:round;stroke-linejoin:miter;opacity:0.6;font-family:&quot;Anthropic Sans&quot;, -apple-system, BlinkMacSystemFont, &quot;Segoe UI&quot;, sans-serif;font-size:16px;font-weight:400;text-anchor:start;dominant-baseline:auto"/>
  <path d="M 560 30 C 580 50, 615 45, 625 65 C 635 85, 620 100, 605 95" fill="none" stroke="#f48fb1" stroke-width="1" stroke-linecap="round" opacity="0.4" style="fill:none;stroke:rgb(244, 143, 177);color:rgb(0, 0, 0);stroke-width:0.869565px;stroke-linecap:round;stroke-linejoin:miter;opacity:0.4;font-family:&quot;Anthropic Sans&quot;, -apple-system, BlinkMacSystemFont, &quot;Segoe UI&quot;, sans-serif;font-size:16px;font-weight:400;text-anchor:start;dominant-baseline:auto"/>

</svg>